<svg width="45" height="45" viewBox="0 0 45 45" fill="none" xmlns="http://www.w3.org/2000/svg">
<circle cx="22.5" cy="22.5" r="21.5" fill="white" stroke="#F13C6E" stroke-width="2"/>
<path d="M27.4057 13.0042L24.8122 13C21.8985 13 20.0155 14.9319 20.0155 17.922V20.1914H17.4078C17.1825 20.1914 17 20.3741 17 20.5994V23.8875C17 24.1128 17.1827 24.2953 17.4078 24.2953H20.0155V32.5922C20.0155 32.8175 20.198 33 20.4233 33H23.8256C24.0509 33 24.2334 32.8173 24.2334 32.5922V24.2953H27.2823C27.5077 24.2953 27.6902 24.1128 27.6902 23.8875L27.6914 20.5994C27.6914 20.4912 27.6483 20.3876 27.572 20.311C27.4956 20.2345 27.3916 20.1914 27.2834 20.1914H24.2334V18.2676C24.2334 17.343 24.4537 16.8736 25.6582 16.8736L27.4053 16.873C27.6304 16.873 27.8129 16.6903 27.8129 16.4651V13.412C27.8129 13.1871 27.6306 13.0046 27.4057 13.0042Z" fill="#F13C6E"/>
</svg>
