<svg width="45" height="45" viewBox="0 0 45 45" fill="none" xmlns="http://www.w3.org/2000/svg">
<circle cx="22.5" cy="22.5" r="21.5" fill="white" stroke="#F13C6E" stroke-width="2"/>
<g clip-path="url(#clip0_1_43)">
<path d="M27.125 12H18.875C15.0786 12 12 15.0786 12 18.875V27.125C12 30.9214 15.0786 34 18.875 34H27.125C30.9214 34 34 30.9214 34 27.125V18.875C34 15.0786 30.9214 12 27.125 12ZM31.9375 27.125C31.9375 29.7787 29.7787 31.9375 27.125 31.9375H18.875C16.2213 31.9375 14.0625 29.7787 14.0625 27.125V18.875C14.0625 16.2213 16.2213 14.0625 18.875 14.0625H27.125C29.7787 14.0625 31.9375 16.2213 31.9375 18.875V27.125Z" fill="#F13C6E"/>
<path d="M23 17.5C19.9626 17.5 17.5 19.9626 17.5 23C17.5 26.0374 19.9626 28.5 23 28.5C26.0374 28.5 28.5 26.0374 28.5 23C28.5 19.9626 26.0374 17.5 23 17.5ZM23 26.4375C21.1052 26.4375 19.5625 24.8948 19.5625 23C19.5625 21.1039 21.1052 19.5625 23 19.5625C24.8948 19.5625 26.4375 21.1039 26.4375 23C26.4375 24.8948 24.8948 26.4375 23 26.4375Z" fill="#F13C6E"/>
<path d="M28.9125 17.8204C29.3172 17.8204 29.6454 17.4923 29.6454 17.0875C29.6454 16.6828 29.3172 16.3547 28.9125 16.3547C28.5077 16.3547 28.1796 16.6828 28.1796 17.0875C28.1796 17.4923 28.5077 17.8204 28.9125 17.8204Z" fill="#F13C6E"/>
</g>
<defs>
<clipPath id="clip0_1_43">
<rect width="22" height="22" fill="white" transform="translate(12 12)"/>
</clipPath>
</defs>
</svg>
